<svg width="48" height="48" viewBox="0 0 48 48" fill="none" xmlns="http://www.w3.org/2000/svg">
<path d="M14.344 21.8893H7.23437C6.77178 21.8893 6.39688 21.5143 6.39688 21.0518C6.39688 20.5895 6.77181 20.2143 7.23437 20.2143H14.344C14.8065 20.2143 15.1815 20.5895 15.1815 21.0518C15.1815 21.5143 14.8066 21.8893 14.344 21.8893Z" fill="#092C4C" stroke="white" stroke-width="0.2"/>
<path d="M14.9691 26.3893H7.23437C6.77181 26.3893 6.39688 26.014 6.39688 25.5518C6.39688 25.0892 6.77178 24.7143 7.23437 24.7143H14.9691C15.4313 24.7143 15.8066 25.0892 15.8066 25.5518C15.8066 26.014 15.4313 26.3893 14.9691 26.3893Z" fill="#092C4C" stroke="white" stroke-width="0.2"/>
<path d="M19.4281 26.1439L19.4278 26.1441C19.2725 26.3004 19.0561 26.3893 18.8359 26.3893C18.6147 26.3893 18.3994 26.3004 18.244 26.1441L18.2436 26.1437C18.0873 25.9883 17.9984 25.773 17.9984 25.5518C17.9984 25.3316 18.0873 25.1151 18.2436 24.9598L18.2436 24.9598L18.2438 24.9596C18.3994 24.804 18.616 24.7143 18.8359 24.7143C19.0558 24.7143 19.2725 24.804 19.4281 24.9596C19.5836 25.1152 19.6734 25.3318 19.6734 25.5518C19.6734 25.7727 19.5837 25.9883 19.4281 26.1439Z" fill="#092C4C" stroke="white" stroke-width="0.2"/>
<path d="M35.7171 12.1878C35.7171 16.682 32.061 20.3382 27.5668 20.3382C23.0729 20.3382 19.4164 16.682 19.4164 12.1878C19.4164 7.69401 23.0729 4.0375 27.5668 4.0375C32.061 4.0375 35.7171 7.69401 35.7171 12.1878ZM34.0421 12.1878C34.0421 8.61736 31.1372 5.71286 27.5668 5.71286C23.9963 5.71286 21.0918 8.61737 21.0918 12.1878C21.0918 15.7583 23.9963 18.6632 27.5668 18.6632C31.1372 18.6632 34.0421 15.7583 34.0421 12.1878Z" fill="#F58220" stroke="white" stroke-width="0.2"/>
<path d="M35.0588 21.6665L35.1454 21.5967C35.8181 21.054 36.4316 20.4405 36.9742 19.7679L37.0441 19.6813L37.1228 19.7599L44.3173 26.9545C44.8647 27.5018 44.8647 28.3924 44.3174 28.9398L35.0588 21.6665ZM35.0588 21.6665L35.1375 21.7452M35.0588 21.6665L35.1375 21.7452M35.1375 21.7452L42.3317 28.9398C42.879 29.4871 43.7699 29.4876 44.3173 28.9398L35.1375 21.7452ZM44.3392 24.5657V24.6072L44.3685 24.6365L45.502 25.7699C46.7022 26.9704 46.7022 28.9239 45.502 30.1244C45.1851 30.4413 44.8113 30.6796 44.4042 30.8317L44.3392 30.856V30.9254V35.4367C44.3392 37.9665 42.2812 40.0246 39.7514 40.0246H27.654H27.554V40.1245V42.3767V42.4748L27.6521 42.4767C30.1404 42.5251 32.1499 44.5627 32.1499 47.0624C32.1499 47.525 31.775 47.8999 31.3124 47.8999H14.6198C14.1573 47.8999 13.7823 47.525 13.7823 47.0624C13.7823 44.5627 15.7919 42.5247 18.2806 42.4767L18.3787 42.4748V42.3767V40.1245V40.0246H18.2787H6.18786C3.65801 40.0246 1.6 37.9665 1.6 35.4367V11.811C1.6 9.28152 3.65801 7.22315 6.18786 7.22315H16.4813H16.5454L16.5722 7.16485C18.4828 2.99962 22.6922 0.1 27.5657 0.1C32.4396 0.1 36.6487 2.99962 38.5597 7.16485L38.5864 7.22315H38.6506H39.7514C42.2809 7.22315 44.3392 9.28153 44.3392 11.811V24.5657ZM42.4935 22.7615L42.6642 22.9322V22.6907V11.811C42.6642 10.2049 41.3575 8.89852 39.7514 8.89852H39.3295H39.1987L39.233 9.02472C39.5068 10.0333 39.6539 11.0938 39.6539 12.1878C39.6539 14.3788 39.0681 16.4347 38.045 18.2082L38.0067 18.2746L38.0609 18.3289L42.4935 22.7615ZM15.8988 9.02472L15.9331 8.89852H15.8023H6.18786C4.58174 8.89852 3.275 10.2049 3.275 11.811V31.8742V31.9742H3.375H42.5642H42.6642V31.8742V31.0348V30.9564L42.588 30.9377C42.0473 30.8055 41.5512 30.5282 41.1474 30.1244L33.7064 22.6834L33.6522 22.6292L33.5857 22.6675C31.8123 23.6902 29.7563 24.276 27.5657 24.276C22.7841 24.276 18.6415 21.4847 16.6822 17.4455L16.6549 17.3891H16.5923H7.23375C6.77119 17.3891 6.39625 17.0139 6.39625 16.5516C6.39625 16.089 6.77116 15.7141 7.23375 15.7141H15.869H16.0025L15.9649 15.586C15.6486 14.5073 15.4779 13.3676 15.4779 12.1878C15.4779 11.0938 15.625 10.0333 15.8988 9.02472ZM30.2145 46.2249H30.3561L30.3088 46.0915C29.908 44.9613 28.8282 44.1495 27.5621 44.1495H18.3702C17.104 44.1495 16.0242 44.9613 15.6238 46.0915L15.5766 46.2249H15.7181H30.2145ZM25.779 42.4745H25.879V42.3745V40.1245V40.0246H25.779H20.1536H20.0536V40.1245V42.3745V42.4745H20.1536H25.779ZM3.375 33.6492H3.275V33.7492V35.4367C3.275 37.0428 4.58173 38.3496 6.18786 38.3496H39.7514C41.3575 38.3496 42.6642 37.0428 42.6642 35.4367V33.7492V33.6492H42.5642H3.375ZM37.9786 12.1878C37.9786 6.4461 33.3075 1.775 27.5657 1.775C21.824 1.775 17.1529 6.4461 17.1529 12.1878C17.1529 17.9296 21.824 22.6007 27.5657 22.6007C33.3075 22.6007 37.9786 17.9296 37.9786 12.1878Z" fill="#092C4C" stroke="white" stroke-width="0.2"/>
<path d="M30.0101 12.1881C30.0101 10.8409 28.914 9.74472 27.5664 9.74472C27.1038 9.74472 26.7289 9.36982 26.7289 8.90722C26.7289 8.44497 27.1038 8.06973 27.5664 8.06973C29.8374 8.06973 31.6851 9.91717 31.6851 12.1881C31.6851 12.6507 31.3102 13.0256 30.8476 13.0256C30.3851 13.0256 30.0101 12.6507 30.0101 12.1881Z" fill="#F58220" stroke="white" stroke-width="0.2"/>
</svg>
