<svg width="49" height="49" viewBox="0 0 49 49" fill="none" xmlns="http://www.w3.org/2000/svg">
<path d="M4.83203 13.1493H4.73203V13.2493V34.25C4.73203 35.1321 5.44951 35.85 6.33203 35.85H11.7845C12.1435 35.85 12.4345 36.1407 12.4345 36.5C12.4345 36.8593 12.1435 37.15 11.7845 37.15H6.33203C4.73307 37.15 3.43203 35.8493 3.43203 34.25V8.75C3.43203 7.1507 4.73307 5.85 6.33203 5.85H42.332C43.931 5.85 45.232 7.1507 45.232 8.75V34.25C45.232 35.8493 43.931 37.15 42.332 37.15H37.0147C36.6557 37.15 36.3647 36.8593 36.3647 36.5C36.3647 36.1407 36.6557 35.85 37.0147 35.85H42.332C43.2146 35.85 43.932 35.1321 43.932 34.25V8.75C43.932 7.86788 43.2146 7.15 42.332 7.15H6.33203C5.44951 7.15 4.73203 7.86788 4.73203 8.75V11.7493V11.8493H4.83203H15.0219C15.5317 11.8493 16.012 11.6505 16.3724 11.2905C16.9792 10.6844 17.7847 10.3507 18.6422 10.3507V10.2507C18.6422 10.3507 18.6423 10.3507 18.6425 10.3507H18.6432H18.6463H18.6583H18.7059H18.8914H19.5957H22.1094L29.7371 10.3507L37.3649 10.3507L39.8785 10.3507L40.5828 10.3507L40.7683 10.3507H40.8159L40.8279 10.3507H40.831H40.8313C41.0533 10.354 41.2108 10.4378 41.3135 10.5558C41.418 10.6757 41.4712 10.8375 41.4698 11.0025C41.4683 11.1676 41.4123 11.3296 41.3067 11.4492C41.2028 11.5671 41.0466 11.6491 40.8316 11.6507H18.6422C18.1323 11.6507 17.6521 11.8495 17.2916 12.2095C16.6849 12.8156 15.8794 13.1493 15.0219 13.1493H4.83203ZM40.823 10.2507C40.8149 10.2507 40.8015 10.2507 40.7828 10.2507C40.787 10.3038 40.8233 10.3423 40.8305 10.3495L40.823 10.2507Z" fill="#435F9C" stroke="white" stroke-width="0.2"/>
<path d="M12.707 9.49957C12.7238 10.4854 14.1904 10.4852 14.207 9.49954C14.1903 8.51375 12.7236 8.51389 12.707 9.49957Z" fill="#435F9C"/>
<path d="M9.70703 9.49957C9.72377 10.4854 11.1904 10.4852 11.207 9.49954C11.1903 8.51375 9.72361 8.51389 9.70703 9.49957Z" fill="#435F9C"/>
<path d="M6.70703 9.49957C6.72377 10.4854 8.19043 10.4852 8.20703 9.49954C8.19031 8.51375 6.72361 8.51389 6.70703 9.49957Z" fill="#435F9C"/>
<path d="M19.966 27.936L19.8953 27.8653L19.8952 27.8654L19.8949 27.8657L19.8935 27.8671L19.8881 27.8725L19.8671 27.8935L19.7873 27.9733L19.5024 28.2581L18.6381 29.1225L17.7738 29.9868L17.489 30.2716L17.4092 30.3514L17.3882 30.3724L17.3828 30.3778L17.3814 30.3792C17.3814 30.3792 17.3814 30.3792 17.3814 30.3792C17.3813 30.3792 17.3813 30.3793 17.3812 30.3794C17.2255 30.5329 17.0566 30.5851 16.9006 30.5745C16.7421 30.5637 16.5892 30.4872 16.4723 30.3697C16.3554 30.2522 16.2794 30.0984 16.2687 29.9394C16.2582 29.7829 16.3102 29.6144 16.462 29.4603C16.4621 29.4602 16.4622 29.4601 16.4623 29.4601L19.5065 26.4159C19.7604 26.1619 20.1717 26.1619 20.4256 26.4159L20.4963 26.3451L20.4256 26.4159L22.5483 28.5383L22.619 28.609L22.6897 28.5383L31.909 19.3209L32.0798 19.1502H31.8383H30.4664C30.1074 19.1502 29.8164 18.8595 29.8164 18.5002C29.8164 18.1456 30.0998 17.8578 30.4523 17.8502C30.4582 17.8515 30.4638 17.8523 30.4683 17.8529C30.4802 17.8544 30.4944 17.8555 30.5095 17.8563C30.5402 17.8579 30.5823 17.8588 30.633 17.8592C30.7349 17.8602 30.8769 17.8592 31.0446 17.8572C31.1904 17.8556 31.3551 17.8531 31.5304 17.8506C31.7606 17.8472 32.0091 17.8436 32.2576 17.841C32.6942 17.8364 33.1245 17.8349 33.4391 17.8437C33.5971 17.8481 33.7227 17.855 33.8048 17.8648C33.8065 17.865 33.8082 17.8652 33.8099 17.8654L33.8985 17.9008C34.1357 17.9956 34.3005 18.2442 34.2991 18.4996V18.5002V21.6811C34.2957 21.8994 34.2126 22.0566 34.0947 22.1604C33.9749 22.2658 33.8136 22.3207 33.6492 22.3211C33.4848 22.3214 33.3236 22.267 33.2039 22.1619C33.086 22.0585 33.0027 21.9009 32.9991 21.681V20.3105V20.0691L32.8284 20.2397L32.8991 20.3105L32.8284 20.2398L32.8283 20.2399L32.8279 20.2403L32.8263 20.2419L32.82 20.2482L32.7954 20.2728L32.702 20.3661L32.3687 20.6994L31.3572 21.7107L30.3456 22.7221L30.0123 23.0553L29.9189 23.1487L29.9151 23.1525H29.7567L29.8765 23.3124C32.203 26.4182 32.3424 30.7978 30.2967 34.0586L30.2544 34.1261L30.3107 34.1825L30.3814 34.1118L30.3108 34.1825L30.311 34.1827L30.3117 34.1834L30.3146 34.1863L30.3259 34.1977L30.3702 34.242L30.5384 34.4101L31.1386 35.0101L32.9599 36.8309L34.7812 38.6517L35.3814 39.2518L35.4383 39.3086H35.4312L35.6088 39.4791L35.609 39.4793L35.6105 39.4808C36.4369 40.274 36.4347 41.7078 35.6165 42.5139L35.616 42.5144C34.7772 43.3532 33.4129 43.3562 32.5698 42.5242L32.5694 42.5238L32.5665 42.5209L32.5552 42.5095L32.5108 42.4651L32.3426 42.2967L31.7422 41.6956L29.9203 39.8715L28.0984 38.0474L27.498 37.4463L27.3298 37.2779L27.2855 37.2335L27.2741 37.2222L27.2713 37.2193L27.2706 37.2186L27.2706 37.2186C27.2707 37.2187 27.2944 37.2864 27.2643 37.3538C27.237 37.3265 27.2179 37.3074 27.2079 37.2973L27.149 37.2026C17.2869 42.9772 7.37352 30.4246 15.2662 22.1707C17.3842 20.0554 20.3168 19.0566 23.317 19.4263C24.3282 19.5517 25.314 19.8416 26.2478 20.2874C26.5716 20.4424 26.7088 20.8303 26.554 21.1538L26.554 21.1539C26.3995 21.4781 26.0111 21.6148 25.6872 21.4605C24.8809 21.0753 24.0301 20.8247 23.1583 20.7163C17.9212 19.932 13.0788 24.7092 13.7864 29.949C14.3794 36.101 21.8087 39.4718 26.8195 35.8642L26.8198 35.8645L26.8266 35.8585C27.0916 35.6286 27.4743 35.608 27.7257 35.8363L27.7257 35.8363L27.7281 35.8384C27.7268 35.8373 27.7266 35.8372 27.7282 35.8387C27.73 35.8405 27.7341 35.8445 27.7416 35.852L27.7909 35.9009L27.9733 36.0829C28.1294 36.2388 28.3508 36.4602 28.616 36.7255C29.1464 37.2562 29.8521 37.9626 30.5613 38.6727C31.1922 39.3044 31.8259 39.939 32.3415 40.4554C32.9621 41.0769 33.4116 41.5271 33.479 41.5944C33.5286 41.6616 33.6074 41.7152 33.6928 41.7544C33.7836 41.7962 33.8914 41.8261 34.0034 41.8384C34.2234 41.8626 34.4825 41.8202 34.6561 41.6337C34.8403 41.452 34.9318 41.2407 34.9383 41.0276C34.9447 40.8148 34.8661 40.6087 34.7257 40.4369L34.7257 40.4369L34.724 40.4349C34.7207 40.4311 34.7118 40.4222 34.7038 40.4141L34.7013 40.4116L34.6526 40.3626L34.4714 40.181L33.83 39.539C33.3 39.0087 32.5937 38.3024 31.8838 37.5926C30.464 36.173 29.0293 34.7389 28.9603 34.6703L28.9528 34.6628L28.9438 34.657C28.9256 34.6453 28.8944 34.6108 28.8618 34.5471C28.8308 34.4864 28.8038 34.4093 28.7877 34.3262C28.7546 34.1555 28.7717 33.9851 28.8592 33.8759L28.8593 33.876L28.8619 33.8724C30.8866 31.1053 30.975 27.2348 29.0414 24.3919C29.0285 24.3446 28.9983 24.2885 28.9293 24.271C28.8638 24.2544 28.8023 24.2861 28.7642 24.31C28.6791 24.3633 28.5701 24.4706 28.447 24.5996C28.387 24.6625 28.3219 24.7324 28.2519 24.8076C28.026 25.0502 27.7492 25.3476 27.4276 25.6397L27.4275 25.6396L27.4241 25.643L23.0831 29.9831L23.0767 29.9895L23.0716 29.9969C23.0494 30.0288 23.0007 30.0677 22.925 30.1013C22.8512 30.1341 22.7603 30.1579 22.6647 30.166C22.4705 30.1824 22.2796 30.1331 22.1655 29.9943L22.1658 29.994L22.1589 29.9871L20.0367 27.8652L19.966 27.7945L19.8953 27.8653L19.966 27.936ZM35.7289 39.4575C35.7128 39.4409 35.6965 39.4247 35.6798 39.4086V39.5086C35.7022 39.4936 35.718 39.4758 35.7289 39.4575ZM17.4517 30.4503L17.4832 30.4188C17.4623 30.3965 17.4304 30.3794 17.3814 30.3792L17.4517 30.4503Z" fill="#FF9B00" stroke="white" stroke-width="0.2"/>
</svg>
