<svg width="48" height="49" viewBox="0 0 48 49" fill="none" xmlns="http://www.w3.org/2000/svg">
<g clip-path="url(#clip0_14986_4305)">
<path d="M16.8807 1.90814C13.3005 1.91027 9.83186 3.15369 7.06568 5.42654C4.29949 7.69941 2.40695 10.8611 1.71052 14.3729C1.01409 17.8847 1.55686 21.5293 3.24635 24.6858C4.93585 27.8423 7.66753 30.3153 10.976 31.6835C14.2844 33.0517 17.9649 33.2305 21.3903 32.1893C24.8158 31.1481 27.7742 28.9514 29.7616 25.9735C31.7491 22.9956 32.6424 19.4207 32.2896 15.8579C31.9367 12.2952 30.3594 8.96501 27.8265 6.4348C26.3901 4.99671 24.6837 3.85652 22.8053 3.07971C20.927 2.30289 18.9133 1.90475 16.8807 1.90814ZM16.8807 1.90814C16.8807 1.90814 16.8807 1.90814 16.8807 1.90814L16.8808 2.00814L16.8808 1.90814C16.8807 1.90814 16.8807 1.90814 16.8807 1.90814ZM16.8809 34.154H16.8808C14.1217 34.154 11.4051 33.4734 8.97181 32.1727C6.5385 30.8719 4.46356 28.9911 2.9308 26.6968C1.39804 24.4026 0.454774 21.7657 0.18456 19.0198C-0.0856546 16.2739 0.325526 13.5038 1.38168 10.9548C2.43783 8.40574 4.10635 6.15655 6.23942 4.40643C8.3725 2.65631 10.9043 1.45929 13.6105 0.9214C16.3167 0.383515 19.1138 0.521371 21.754 1.32276C24.3943 2.12414 26.7961 3.56432 28.7467 5.51571L28.7468 5.51576C31.0947 7.86153 32.6939 10.8511 33.3419 14.1062C33.99 17.3612 33.6578 20.7354 32.3874 23.8015C31.1169 26.8677 28.9654 29.488 26.2051 31.3309C23.4448 33.1737 20.1998 34.1562 16.8809 34.154Z" fill="#435F9C" stroke="white" stroke-width="0.2"/>
<path d="M25.1441 25.645L25.1439 25.6452C24.0613 26.7337 22.7736 27.5967 21.3553 28.1842C19.937 28.7717 18.4163 29.0721 16.8811 29.068H16.8808C14.177 29.0681 11.5569 28.1307 9.46677 26.4155C7.37666 24.7003 5.94594 22.3134 5.41839 19.6616C4.89083 17.0098 5.29908 14.2571 6.57358 11.8726C7.84807 9.48801 9.90996 7.61915 12.4079 6.58441C14.9058 5.54967 17.6853 5.41307 20.2727 6.1979C22.86 6.98272 25.0952 8.64041 26.5974 10.8885C28.0996 13.1366 28.7757 15.836 28.5108 18.5268C28.2458 21.2175 27.056 23.7332 25.1441 25.645ZM16.9808 7.00064V6.99951L16.8807 6.9996C14.48 7.0019 12.1543 7.83645 10.2999 9.36109C8.44542 10.8857 7.17691 13.0061 6.71045 15.3611C6.24398 17.7161 6.6084 20.16 7.74163 22.2764C8.87487 24.3928 10.7068 26.0509 12.9254 26.9682C15.144 27.8855 17.612 28.0052 19.9089 27.307C22.2059 26.6088 24.1897 25.1358 25.5225 23.139C26.8553 21.1422 27.4546 18.7451 27.2183 16.3561C26.9819 13.967 25.9247 11.7338 24.2266 10.0368C23.2625 9.07178 22.1172 8.30674 20.8566 7.78565C19.6268 7.27733 18.3109 7.01091 16.9808 7.00064Z" fill="#435F9C" stroke="white" stroke-width="0.2"/>
<path d="M32.3896 33.8097L32.3897 33.8097C32.5115 33.9316 32.6768 34.0001 32.8492 34.0002L32.3896 33.8097ZM32.3896 33.8097L27.827 29.2471L27.827 29.2471M32.3896 33.8097L27.827 29.2471M27.827 29.2471L27.8258 29.2459M27.827 29.2471L27.8258 29.2459M27.8258 29.2459C27.7637 29.1859 27.7142 29.1142 27.6801 29.0349C27.646 28.9556 27.6281 28.8703 27.6274 28.784C27.6266 28.6977 27.6431 28.6121 27.6757 28.5322C27.7084 28.4523 27.7567 28.3797 27.8177 28.3187C27.8788 28.2577 27.9513 28.2094 28.0312 28.1767C28.1111 28.144 28.1967 28.1276 28.283 28.1283C28.3693 28.1291 28.4546 28.147 28.5339 28.1811C28.6132 28.2152 28.6849 28.2647 28.7449 28.3268L28.7449 28.3268M27.8258 29.2459L28.7449 28.3268M28.7449 28.3268L28.7461 28.328M28.7449 28.3268L28.7461 28.328M28.7461 28.328L33.3083 32.8902L33.3084 32.8903M28.7461 28.328L33.3084 32.8903M33.3084 32.8903C33.3994 32.9812 33.4613 33.097 33.4865 33.2231M33.3084 32.8903L33.4865 33.2231M33.4865 33.2231C33.5116 33.3491 33.4988 33.4799 33.4496 33.5987M33.4865 33.2231L33.4496 33.5987M33.4496 33.5987C33.4005 33.7175 33.3172 33.819 33.2103 33.8905M33.4496 33.5987L33.2103 33.8905M33.2103 33.8905C33.1034 33.962 32.9778 34.0001 32.8492 34.0002L33.2103 33.8905Z" fill="#435F9C" stroke="white" stroke-width="0.2"/>
<path d="M43.2776 48.3981H43.278C43.7568 48.3991 44.2311 48.3057 44.6737 48.123C45.1163 47.9404 45.5185 47.6722 45.8572 47.3338C45.8572 47.3338 45.8572 47.3338 45.8572 47.3338L46.8284 46.3627L43.2776 48.3981ZM43.2776 48.3981C42.7983 48.3989 42.3236 48.3051 41.8807 48.1219C41.4378 47.9386 41.0355 47.6697 40.6969 47.3305L40.6969 47.3305M43.2776 48.3981L40.6969 47.3305M40.6969 47.3305L29.7825 36.418C29.6606 36.2961 29.5922 36.1308 29.5922 35.9584C29.5922 35.7861 29.6606 35.6208 29.7825 35.4989L34.9969 30.2864L34.9262 30.2157M40.6969 47.3305L34.9262 30.2157M34.9262 30.2157L34.9969 30.2864C35.1187 30.1645 35.284 30.0961 35.4564 30.0961M34.9262 30.2157L35.4564 30.0961M35.4564 30.0961C35.6288 30.0961 35.7941 30.1645 35.916 30.2864M35.4564 30.0961L35.916 30.2864M35.916 30.2864L46.8284 41.2007L35.916 30.2864ZM47.8961 43.7817C47.8961 42.8139 47.5121 41.8857 46.8284 41.2008L47.8961 43.7817ZM47.8961 43.7817C47.8961 44.7494 47.5121 45.6777 46.8284 46.3626L47.8961 43.7817ZM31.2322 35.8862L31.1615 35.9569L31.2322 36.0276L41.6159 46.4114C42.0567 46.8521 42.6544 47.0996 43.2776 47.0996C43.9008 47.0996 44.4985 46.8521 44.9392 46.4114L44.8685 46.3407L44.9392 46.4114L45.9109 45.4398C46.3515 44.9991 46.5991 44.4014 46.5991 43.7781C46.5991 43.1549 46.3515 42.5572 45.9109 42.1165L35.5271 31.7327L35.4564 31.662L35.3857 31.7327L31.2322 35.8862Z" fill="#435F9C" stroke="white" stroke-width="0.2"/>
<path d="M17.5274 19.6519L17.5274 19.6519C17.6492 19.7738 17.8145 19.8423 17.9869 19.8424L17.5274 19.6519ZM17.5274 19.6519L13.8149 15.9394L13.7442 15.8687M17.5274 19.6519L13.7442 15.8687M13.7442 15.8687L13.6734 15.9394M13.7442 15.8687L13.6734 15.9394M13.6734 15.9394L9.96094 19.6519L9.96093 19.6519M13.6734 15.9394L9.96093 19.6519M9.96093 19.6519L9.95972 19.6532M9.96093 19.6519L9.95972 19.6532M9.95972 19.6532C9.89976 19.7153 9.82804 19.7648 9.74874 19.7988C9.66943 19.8329 9.58414 19.8508 9.49783 19.8516C9.41153 19.8523 9.32594 19.8359 9.24605 19.8032C9.16617 19.7705 9.0936 19.7223 9.03257 19.6612C8.97154 19.6002 8.92327 19.5276 8.89059 19.4477C8.85791 19.3679 8.84146 19.2823 8.84221 19.196C8.84296 19.1097 8.86089 19.0244 8.89496 18.9451C8.92902 18.8658 8.97854 18.794 9.04062 18.7341L9.04063 18.7341M9.95972 19.6532L9.04063 18.7341M9.04063 18.7341L9.04186 18.7329M9.04063 18.7341L9.04186 18.7329M9.04186 18.7329L13.2846 14.4901C13.4065 14.3683 13.5718 14.2998 13.7442 14.2998C13.9165 14.2998 14.0818 14.3683 14.2037 14.4901L17.9162 18.2026L17.9869 18.2733M9.04186 18.7329L17.9869 18.2733M17.9869 18.2733L18.0576 18.2026M17.9869 18.2733L18.0576 18.2026M18.0576 18.2026L21.7701 14.4901L21.7701 14.4901M18.0576 18.2026L21.7701 14.4901M21.7701 14.4901L21.7713 14.4889M21.7701 14.4901L21.7713 14.4889M21.7713 14.4889C21.8313 14.4268 21.903 14.3773 21.9823 14.3432C22.0616 14.3091 22.1469 14.2912 22.2332 14.2905C22.3195 14.2897 22.4051 14.3062 22.485 14.3388C22.5649 14.3715 22.6375 14.4198 22.6985 14.4808C22.7595 14.5418 22.8078 14.6144 22.8405 14.6943C22.8731 14.7742 22.8896 14.8598 22.8888 14.9461C22.8881 15.0324 22.8702 15.1177 22.8361 15.197L22.928 15.2364M21.7713 14.4889L22.928 15.2364M22.928 15.2364L22.8361 15.197C22.802 15.2763 22.7525 15.348 22.6904 15.408L22.6904 15.408M22.928 15.2364L22.6904 15.408M22.6904 15.408L22.6892 15.4092M22.6904 15.408L22.6892 15.4092M22.6892 15.4092L18.4464 19.6519L18.4464 19.6519M22.6892 15.4092L18.4464 19.6519M18.4464 19.6519C18.3246 19.7738 18.1593 19.8423 17.9869 19.8424L18.4464 19.6519Z" fill="#FF9A00" stroke="white" stroke-width="0.2"/>
<path d="M21.7671 14.4901L21.7671 14.4901L17.5247 18.7328C17.4338 18.8237 17.3719 18.9396 17.3469 19.0656C17.3218 19.1917 17.3347 19.3224 17.3838 19.4411C17.433 19.5599 17.5163 19.6614 17.6232 19.7328C17.73 19.8042 17.8557 19.8424 17.9842 19.8424L21.7671 14.4901ZM21.7671 14.4901L21.7683 14.4889M21.7671 14.4901L21.7683 14.4889M21.7683 14.4889C21.8282 14.4268 21.9 14.3773 21.9793 14.3432C22.0586 14.3091 22.1439 14.2912 22.2302 14.2905C22.3165 14.2897 22.4021 14.3062 22.4819 14.3388C22.5618 14.3715 22.6344 14.4198 22.6954 14.4808C22.7565 14.5418 22.8047 14.6144 22.8374 14.6943C22.8701 14.7742 22.8865 14.8598 22.8858 14.9461C22.885 15.0324 22.8671 15.1177 22.833 15.197C22.799 15.2763 22.7495 15.348 22.6874 15.408L22.6874 15.408M21.7683 14.4889L22.6874 15.408M22.6874 15.408L22.6861 15.4092M22.6874 15.408L22.6861 15.4092M22.6861 15.4092L18.4438 19.6519L18.4437 19.6519M22.6861 15.4092L18.4437 19.6519M18.4437 19.6519C18.3219 19.7738 18.1566 19.8423 17.9842 19.8424L18.4437 19.6519Z" fill="#FF9A00" stroke="white" stroke-width="0.2"/>
<path d="M19.1438 14.5872L22.7662 13.6167C22.7662 13.6167 22.7663 13.6167 22.7663 13.6167C22.8764 13.5872 22.9924 13.5873 23.1026 13.6168C23.2128 13.6463 23.3132 13.7044 23.3939 13.785C23.4745 13.8657 23.5325 13.9661 23.5621 14.0763C23.5916 14.1865 23.5916 14.3025 23.5622 14.4126L22.5906 18.0347L22.5905 18.0348C22.5536 18.1729 22.4723 18.295 22.359 18.3822C22.2458 18.4693 22.1071 18.5167 21.9642 18.5171C21.8646 18.5167 21.7665 18.4935 21.6773 18.4493C21.588 18.405 21.51 18.3409 21.4493 18.2618C21.3887 18.1827 21.3469 18.0908 21.3273 17.9931C21.3078 17.8954 21.3108 17.7945 21.3363 17.6982C21.3363 17.6982 21.3363 17.6981 21.3363 17.6981L21.9704 15.3306L22.0152 15.1633L21.8479 15.2082L19.4805 15.8427L19.4805 15.8426L19.479 15.8431C19.3961 15.8667 19.3093 15.8736 19.2237 15.8634C19.1381 15.8532 19.0553 15.826 18.9803 15.7835C18.9053 15.741 18.8395 15.684 18.7867 15.6158C18.734 15.5476 18.6953 15.4696 18.673 15.3863C18.6506 15.3031 18.6451 15.2162 18.6567 15.1308C18.6682 15.0453 18.6967 14.963 18.7404 14.8887C18.784 14.8144 18.8421 14.7495 18.9111 14.6978C18.9801 14.6461 19.0587 14.6086 19.1423 14.5876L19.1423 14.5876L19.1438 14.5872Z" fill="#FF9A00" stroke="white" stroke-width="0.2"/>
</g>
<defs>
<clipPath id="clip0_14986_4305">
<rect width="48" height="48" fill="white" transform="translate(0 0.5)"/>
</clipPath>
</defs>
</svg>
