<svg width="49" height="49" viewBox="0 0 49 49" fill="none" xmlns="http://www.w3.org/2000/svg">
<path d="M24.8922 38.4855L24.6662 38.371L24.4402 38.4855L8.86719 46.378V7.25027C8.86831 6.18968 9.29012 5.17284 10.0401 4.42289C10.79 3.67293 11.8069 3.25112 12.8675 3.25H36.4649C37.5255 3.25112 38.5423 3.67293 39.2923 4.42289C40.0423 5.1729 40.4641 6.18983 40.4652 7.2505V46.378L24.8922 38.4855ZM37.7392 42.754L38.4652 43.1219V42.308V7.25C38.4652 6.71957 38.2545 6.21086 37.8794 5.83579C37.5043 5.46071 36.9956 5.25 36.4652 5.25H12.8672C12.3368 5.25 11.828 5.46071 11.453 5.83579C11.0779 6.21086 10.8672 6.71957 10.8672 7.25V42.308V43.1219L11.5932 42.754L24.6662 36.129L37.7392 42.754Z" fill="#092C4C" stroke="white"/>
<path d="M23.168 19.75H23.668V19.25V13.75H25.668V19.25V19.75H26.168H31.668V21.75H26.168H25.668V22.25V27.75H23.668V22.25V21.75H23.168H17.668V19.75H23.168Z" fill="#FF9B00" stroke="white"/>
</svg>
