<svg width="48" height="49" viewBox="0 0 48 49" fill="none" xmlns="http://www.w3.org/2000/svg">
<path d="M23 41.3261L23.0007 41.3261C23.6621 41.3245 24.2 41.8634 24.2 42.5241C24.2 43.1863 23.6623 43.7245 22.9993 43.7261H5.9C5.07801 43.7261 4.29 43.398 3.7078 42.8177C3.12631 42.236 2.8 41.4465 2.8 40.6261V37.7241C2.8 35.3219 4.25577 32.9894 6.99103 31.124C10.5798 28.6771 16.3978 27.0241 23 27.0241C23.6621 27.0241 24.2 27.5635 24.2 28.2241C24.2 28.8864 23.6623 29.4241 23 29.4241C17.0224 29.4241 11.6748 30.8354 8.34505 33.1082C6.49301 34.3686 5.2 35.9109 5.2 37.7241V40.6261C5.2 40.8134 5.27482 40.9892 5.40587 41.1203C5.53412 41.2485 5.71163 41.3261 5.9 41.3261L23 41.3261Z" fill="#092C4C" stroke="white" stroke-width="0.6"/>
<path d="M12.3 14C12.3 8.09369 17.0937 3.3 23 3.3C28.9063 3.3 33.7 8.09369 33.7 14C33.7 19.9063 28.9063 24.7 23 24.7C17.0937 24.7 12.3 19.9063 12.3 14ZM31.3 14C31.3 9.41831 27.5817 5.7 23 5.7C18.4183 5.7 14.7 9.41831 14.7 14C14.7 18.5817 18.4183 22.3 23 22.3C27.5817 22.3 31.3 18.5817 31.3 14Z" fill="#092C4C" stroke="white" stroke-width="0.6"/>
<path fill-rule="evenodd" clip-rule="evenodd" d="M34.999 28.376C31.067 28.376 27.875 31.568 27.875 35.5C27.875 39.432 31.067 42.626 34.999 42.626C38.931 42.626 42.125 39.432 42.125 35.5C42.125 31.568 38.931 28.376 34.999 28.376ZM34.999 31.376C37.275 31.376 39.125 33.224 39.125 35.5C39.125 37.776 37.275 39.626 34.999 39.626C32.723 39.626 30.873 37.776 30.873 35.5C30.873 33.224 32.723 31.376 34.999 31.376Z" fill="#FF9B00"/>
<path fill-rule="evenodd" clip-rule="evenodd" d="M36.5 29.874V26.5C36.5 25.672 35.828 25 35 25C34.172 25 33.5 25.672 33.5 26.5V29.876C33.5 30.702 34.172 31.376 35 31.376C35.828 31.374 36.5 30.702 36.5 29.874Z" fill="#FF9B00"/>
<path fill-rule="evenodd" clip-rule="evenodd" d="M40.0366 32.5837L42.4226 30.1957C43.0086 29.6117 43.0086 28.6597 42.4226 28.0757C41.8386 27.4897 40.8866 27.4897 40.3026 28.0757L37.9146 30.4617C37.3306 31.0477 37.3306 31.9977 37.9146 32.5837C38.5006 33.1677 39.4506 33.1677 40.0366 32.5837Z" fill="#FF9B00"/>
<path fill-rule="evenodd" clip-rule="evenodd" d="M40.623 37H43.999C44.827 37 45.499 36.328 45.499 35.5C45.499 34.672 44.827 34 43.999 34H40.623C39.797 34 39.125 34.672 39.125 35.5C39.123 36.328 39.797 37 40.623 37Z" fill="#FF9B00"/>
<path fill-rule="evenodd" clip-rule="evenodd" d="M37.9146 40.538L40.3026 42.924C40.8866 43.51 41.8386 43.51 42.4226 42.924C43.0086 42.34 43.0086 41.388 42.4226 40.804L40.0366 38.416C39.4506 37.832 38.5006 37.832 37.9146 38.416C37.3306 39.002 37.3306 39.952 37.9146 40.538Z" fill="#FF9B00"/>
<path fill-rule="evenodd" clip-rule="evenodd" d="M33.5 41.124V44.5C33.5 45.328 34.172 46 35 46C35.828 46 36.5 45.328 36.5 44.5V41.124C36.5 40.298 35.828 39.626 35 39.624C34.172 39.624 33.5 40.298 33.5 41.124Z" fill="#FF9B00"/>
<path fill-rule="evenodd" clip-rule="evenodd" d="M29.9622 38.416L27.5762 40.804C26.9902 41.388 26.9902 42.34 27.5762 42.924C28.1602 43.51 29.1122 43.51 29.6962 42.924L32.0842 40.538C32.6682 39.952 32.6682 39.002 32.0842 38.416C31.4982 37.832 30.5482 37.832 29.9622 38.416Z" fill="#FF9B00"/>
<path fill-rule="evenodd" clip-rule="evenodd" d="M29.374 34H26C25.172 34 24.5 34.672 24.5 35.5C24.5 36.328 25.172 37 26 37H29.374C30.202 37 30.876 36.328 30.874 35.5C30.874 34.672 30.202 34 29.374 34Z" fill="#FF9B00"/>
<path fill-rule="evenodd" clip-rule="evenodd" d="M32.0842 30.4617L29.6962 28.0757C29.1122 27.4897 28.1602 27.4897 27.5762 28.0757C26.9902 28.6597 26.9902 29.6117 27.5762 30.1957L29.9622 32.5837C30.5482 33.1677 31.4982 33.1677 32.0842 32.5837C32.6682 31.9977 32.6682 31.0477 32.0842 30.4617Z" fill="#FF9B00"/>
</svg>
