<svg width="48" height="49" viewBox="0 0 48 49" fill="none" xmlns="http://www.w3.org/2000/svg">
<path d="M42.2237 14.18H39.111V13.3872C39.111 11.1981 37.8092 9.30723 35.9474 8.4345C36.9292 7.72178 37.5764 6.55814 37.5764 5.25632C37.5764 3.08905 35.8092 1.32178 33.6419 1.32178C31.4746 1.32178 29.7074 3.08905 29.7074 5.25632C29.7074 6.56541 30.3474 7.72178 31.3364 8.4345C30.2674 8.93632 29.3874 9.76541 28.8274 10.7981C28.2674 9.76541 27.3874 8.93632 26.3183 8.4345C27.3001 7.72178 27.9474 6.55814 27.9474 5.25632C27.9474 3.08905 26.1801 1.32178 24.0128 1.32178C21.8455 1.32178 20.0783 3.08905 20.0783 5.25632C20.0783 6.56541 20.7183 7.72178 21.7074 8.4345C20.6383 8.93632 19.7583 9.76541 19.1983 10.7981C18.6383 9.76541 17.7583 8.93632 16.6892 8.4345C17.671 7.72178 18.3183 6.55814 18.3183 5.25632C18.3183 3.08905 16.551 1.32178 14.3837 1.32178C12.2164 1.32178 10.4492 3.08905 10.4492 5.25632C10.4492 6.56541 11.0892 7.72178 12.0783 8.4345C10.2092 9.30723 8.91463 11.1981 8.91463 13.3872V14.18H5.77281C5.42372 14.18 5.13281 14.4636 5.13281 14.82V18.0636C5.13281 18.4127 5.41645 18.7036 5.77281 18.7036H8.05645L20.0928 31.4963C20.1801 31.7436 20.4128 31.9181 20.6964 31.9181C21.0455 31.9181 21.3365 31.6345 21.3365 31.2781V31.1981C21.3365 31.0381 21.2783 30.8781 21.1619 30.7618L9.8019 18.6963H38.1946L26.8419 30.7618C26.7328 30.8781 26.6674 31.0381 26.6674 31.1981V31.2781C26.6674 31.6272 26.951 31.9181 27.3074 31.9181C27.5837 31.9181 27.8237 31.7436 27.911 31.4963L39.9474 18.7036H42.2237C42.5728 18.7036 42.8637 18.42 42.8637 18.0636V14.82C42.8564 14.4709 42.5728 14.18 42.2237 14.18ZM30.9728 5.25632C30.9728 3.78723 32.1655 2.5945 33.6346 2.5945C35.1037 2.5945 36.2964 3.78723 36.2964 5.25632C36.2964 6.72541 35.1037 7.91814 33.6346 7.91814C32.1655 7.91814 30.9728 6.72541 30.9728 5.25632ZM33.6346 9.19087C35.9546 9.19087 37.8383 11.0745 37.8383 13.3945V14.1872H29.4746V13.3945C29.4746 13.2636 29.4674 13.14 29.4528 13.0091C29.6492 10.8709 31.4455 9.19087 33.6346 9.19087ZM21.3365 5.25632C21.3365 3.78723 22.5292 2.5945 23.9983 2.5945C25.4674 2.5945 26.6601 3.78723 26.6601 5.25632C26.6601 6.72541 25.4674 7.91814 23.9983 7.91814C22.5292 7.91814 21.3365 6.72541 21.3365 5.25632ZM23.9983 9.19087C26.1874 9.19087 27.9837 10.8709 28.1801 13.0091C28.1728 13.1327 28.1583 13.2636 28.1583 13.3945V14.1872H19.8383V13.3945C19.8383 13.2636 19.831 13.14 19.8165 13.0091C20.0128 10.8709 21.8092 9.19087 23.9983 9.19087ZM11.7001 5.25632C11.7001 3.78723 12.8928 2.5945 14.3619 2.5945C15.831 2.5945 17.0237 3.78723 17.0237 5.25632C17.0237 6.72541 15.831 7.91814 14.3619 7.91814C12.8928 7.91814 11.7001 6.72541 11.7001 5.25632ZM10.1655 13.3872C10.1655 11.0745 12.0492 9.18359 14.3692 9.18359C16.5583 9.18359 18.3546 10.8636 18.551 13.0018C18.5437 13.1254 18.5292 13.2563 18.5292 13.3872V14.18H10.1655V13.3872ZM41.5837 17.4236H6.41281V15.4527H41.591V17.4236H41.5837Z" fill="#092C4C"/>
<path d="M23.9962 32.9512C19.938 32.9512 16.6289 36.253 16.6289 40.3184C16.6289 44.3766 19.9307 47.6857 23.9962 47.6857C28.0616 47.6857 31.3635 44.3839 31.3635 40.3184C31.3635 36.2603 28.0616 32.9512 23.9962 32.9512ZM23.9962 46.413C20.6362 46.413 17.9016 43.6784 17.9016 40.3184C17.9016 36.9584 20.6362 34.2239 23.9962 34.2239C27.3562 34.2239 30.0907 36.9584 30.0907 40.3184C30.0907 43.6784 27.3562 46.413 23.9962 46.413Z" fill="#FF9B00"/>
<path d="M23.9974 37.6562C24.5574 37.6562 25.0083 38.1144 25.0083 38.6672C25.0083 39.0162 25.2919 39.3072 25.6483 39.3072C26.0047 39.3072 26.2883 39.0235 26.2883 38.6672C26.2883 37.6272 25.5901 36.7617 24.6374 36.4853V36.0199C24.6374 35.6708 24.3538 35.3799 23.9974 35.3799C23.641 35.3799 23.3574 35.6635 23.3574 36.0199V36.4853C22.4047 36.7617 21.7065 37.6344 21.7065 38.6672C21.7065 39.9253 22.7319 40.9508 23.9901 40.9508C24.5501 40.9508 25.001 41.409 25.001 41.9617C25.001 42.5144 24.5429 42.9726 23.9901 42.9726C23.4374 42.9726 22.9792 42.5144 22.9792 41.9617C22.9792 41.6126 22.6956 41.3217 22.3392 41.3217C21.9829 41.3217 21.6992 41.6053 21.6992 41.9617C21.6992 43.0017 22.3974 43.8672 23.3501 44.1435V44.609C23.3501 44.9581 23.6338 45.249 23.9901 45.249C24.3465 45.249 24.6301 44.9653 24.6301 44.609V44.1435C25.5829 43.8672 26.281 42.9944 26.281 41.9617C26.281 40.7035 25.2556 39.6781 23.9974 39.6781C23.4374 39.6781 22.9865 39.2199 22.9865 38.6672C22.9865 38.1144 23.4374 37.6562 23.9974 37.6562Z" fill="#FF9B00"/>
</svg>
