<svg width="48" height="49" viewBox="0 0 48 49" fill="none" xmlns="http://www.w3.org/2000/svg">
<path d="M20.4556 20.34L20.4557 20.3402C20.7011 20.7704 20.6285 21.3122 20.278 21.6621L20.2778 21.6623L15.1626 26.7776C14.9511 26.9891 14.6692 27.0999 14.3841 27.0999C14.1979 27.0999 14.0109 27.0527 13.8405 26.9555L13.8403 26.9553C7.87545 23.5555 4.56427 18.5597 3.41296 11.1692C3.3593 10.8222 3.47427 10.4704 3.72225 10.2223C3.9716 9.97361 4.32635 9.85866 4.66857 9.91258L4.66926 9.91269C12.0598 11.064 17.0557 14.3752 20.4556 20.34ZM13.9389 24.4466L14.2098 24.6196L14.437 24.3923L17.8926 20.9368L18.1198 20.7095L17.9469 20.4387C15.2595 16.2301 11.625 13.7127 6.4857 12.5045L5.85697 12.3567L6.00477 12.9855C7.21292 18.1247 9.73029 21.7592 13.9389 24.4466Z" fill="#FF9B00" stroke="white" stroke-width="0.8"/>
<path d="M20.2223 28.2777C19.7926 27.848 19.7926 27.152 20.2223 26.7223C20.652 26.2926 21.348 26.2926 21.7777 26.7223L30.7777 35.7223C31.2074 36.152 31.2074 36.848 30.7777 37.2777C30.5627 37.4927 30.282 37.6 30 37.6C29.718 37.6 29.4373 37.4927 29.2223 37.2777L20.2223 28.2777Z" fill="#FF9B00" stroke="white" stroke-width="0.8"/>
<path d="M30.7777 31.2777C30.5627 31.4927 30.282 31.6 30 31.6C29.718 31.6 29.4373 31.4927 29.2223 31.2777L23.2223 25.2777C22.7926 24.848 22.7926 24.152 23.2223 23.7223C23.652 23.2926 24.348 23.2926 24.7777 23.7223L30.7777 29.7223C31.2074 30.152 31.2074 30.848 30.7777 31.2777Z" fill="#FF9B00" stroke="white" stroke-width="0.8"/>
<path d="M24.7777 37.2777C24.5627 37.4927 24.282 37.6 24 37.6C23.718 37.6 23.4373 37.4927 23.2223 37.2777L17.2223 31.2777C16.7926 30.848 16.7926 30.152 17.2223 29.7223C17.652 29.2926 18.348 29.2926 18.7777 29.7223L24.7777 35.7223C25.2074 36.152 25.2074 36.848 24.7777 37.2777Z" fill="#FF9B00" stroke="white" stroke-width="0.8"/>
<path d="M28.9 6.5V6.1H28.5H22.5C21.4522 6.1 20.6 6.95218 20.6 8V14C20.6 14.6075 20.1075 15.1 19.5 15.1C18.8925 15.1 18.4 14.6075 18.4 14V8C18.4 5.73947 20.2395 3.9 22.5 3.9H40.5C42.7605 3.9 44.6 5.73947 44.6 8V41C44.6 43.2605 42.7605 45.1 40.5 45.1H22.5C20.2395 45.1 18.4 43.2605 18.4 41V38C18.4 37.3925 18.8925 36.9 19.5 36.9C20.1075 36.9 20.6 37.3925 20.6 38V41C20.6 42.0478 21.4522 42.9 22.5 42.9H40.5C41.5487 42.9 42.4 42.0477 42.4 41V8C42.4 6.95231 41.5487 6.1 40.5 6.1H34.5H34.1V6.5C34.1 7.93356 32.933 9.1 31.5 9.1C30.067 9.1 28.9 7.93356 28.9 6.5Z" fill="#435F9C" stroke="white" stroke-width="0.8"/>
</svg>
