<svg width="48" height="49" viewBox="0 0 48 49" fill="none" xmlns="http://www.w3.org/2000/svg">
<g clip-path="url(#clip0_14986_4376)">
<path d="M4.4625 41.7971V41.6471H4.3125H3.27347C1.55135 41.6471 0.15 40.2457 0.15 38.5235V5.1875C0.15 2.68566 2.18566 0.65 4.6875 0.65H43.3125C45.8143 0.65 47.85 2.68566 47.85 5.1875V38.5235C47.85 40.2457 46.4487 41.6471 44.7265 41.6471H43.6875H43.5375V41.7971V46.625V46.775H43.6875H47.0625C47.4974 46.775 47.85 47.1276 47.85 47.5625C47.85 47.9974 47.4974 48.35 47.0625 48.35H0.9375C0.502571 48.35 0.15 47.9974 0.15 47.5625C0.15 47.1276 0.502571 46.775 0.9375 46.775H4.3125H4.4625V46.625V41.7971ZM46.125 7.4H46.275V7.25V5.1875C46.275 3.55384 44.9462 2.225 43.3125 2.225H4.6875C3.05384 2.225 1.725 3.55384 1.725 5.1875V7.25478V7.42053L1.88993 7.40404C1.91624 7.40141 1.94265 7.4 1.96913 7.4H46.125ZM10.3125 46.775H10.4625V46.625V38.1875V38.0375H10.3125H6.1875H6.0375V38.1875V46.625V46.775H6.1875H10.3125ZM20.8125 46.775H20.9625V46.625V27.8218V27.6718H20.8125H16.6875H16.5375V27.8218V46.625V46.775H16.6875H20.8125ZM31.3125 46.775H31.4625V46.625V35.75V35.6H31.3125H27.1875H27.0375V35.75V46.625V46.775H27.1875H31.3125ZM37.6875 26.2719H37.5375V26.4219V30.2187C37.5375 30.6535 37.1849 31.0062 36.75 31.0062C36.3151 31.0062 35.9625 30.6535 35.9625 30.2187V25.4844C35.9625 25.0495 36.3151 24.6969 36.75 24.6969H42.75C43.1849 24.6969 43.5375 25.0495 43.5375 25.4844V39.9221V40.0721H43.6875H44.7265C45.5805 40.0721 46.275 39.3775 46.275 38.5235V9.125V8.975H46.125H1.96913C1.94265 8.975 1.91624 8.97359 1.88993 8.97096L1.725 8.95447V9.12022V38.5235C1.725 39.3775 2.41943 40.0721 3.27347 40.0721H4.3125H4.4625V39.9221V37.25C4.4625 36.8151 4.81507 36.4625 5.25 36.4625H11.25C11.6849 36.4625 12.0375 36.8151 12.0375 37.25V46.625V46.775H12.1875H14.8125H14.9625V46.625V26.8843C14.9625 26.4494 15.3151 26.0968 15.75 26.0968H21.75C22.1849 26.0968 22.5375 26.4494 22.5375 26.8843V46.625V46.775H22.6875H25.3125H25.4625V46.625V34.8125C25.4625 34.3776 25.8151 34.025 26.25 34.025H32.25C32.6849 34.025 33.0375 34.3776 33.0375 34.8125V46.625V46.775H33.1875H35.8125H35.9625V46.625V36.5234C35.9625 36.0886 36.3151 35.7359 36.75 35.7359C37.1849 35.7359 37.5375 36.0886 37.5375 36.5234V46.625V46.775H37.6875H41.8125H41.9625V46.625V26.4219V26.2719H41.8125H37.6875Z" fill="#435F9C" stroke="white" stroke-width="0.3"/>
<path d="M20.8203 4.025H42.0017C42.4366 4.025 42.7892 4.37765 42.7892 4.8125C42.7892 5.24735 42.4366 5.6 42.0017 5.6H20.8203C20.3854 5.6 20.0328 5.24735 20.0328 4.8125C20.0328 4.37765 20.3854 4.025 20.8203 4.025Z" fill="#435F9C" stroke="white" stroke-width="0.3"/>
<path d="M9.19325 4.25575L9.19328 4.25573C9.33953 4.1094 9.54324 4.025 9.75 4.025C9.95673 4.025 10.1605 4.10947 10.3067 4.25575C10.453 4.40204 10.5375 4.60577 10.5375 4.8125C10.5375 5.01923 10.453 5.22295 10.3068 5.36912L10.3067 5.36918C10.1604 5.51553 9.95672 5.6 9.75 5.6C9.54328 5.6 9.33956 5.51553 9.19328 5.36918L9.19323 5.36912C9.04697 5.22295 8.9625 5.01923 8.9625 4.8125C8.9625 4.60577 9.04697 4.40204 9.19325 4.25575Z" fill="#435F9C" stroke="white" stroke-width="0.3"/>
<path d="M5.44325 4.25575L5.44328 4.25573C5.58953 4.1094 5.79324 4.025 6 4.025C6.20673 4.025 6.41046 4.10947 6.55675 4.25575C6.70303 4.40204 6.7875 4.60577 6.7875 4.8125C6.7875 5.01923 6.70303 5.22295 6.55677 5.36912L6.55672 5.36918C6.41044 5.51553 6.20672 5.6 6 5.6C5.79328 5.6 5.58956 5.51553 5.44328 5.36918L5.44323 5.36912C5.29697 5.22295 5.2125 5.01923 5.2125 4.8125C5.2125 4.60577 5.29697 4.40204 5.44325 4.25575Z" fill="#435F9C" stroke="white" stroke-width="0.3"/>
<path d="M12.9433 4.25575L12.9433 4.25573C13.0895 4.1094 13.2932 4.025 13.5 4.025C13.7076 4.025 13.9104 4.10941 14.0567 4.25575C14.203 4.40204 14.2875 4.60577 14.2875 4.8125C14.2875 5.01923 14.203 5.22295 14.0568 5.36912L14.0567 5.36918C13.9104 5.51553 13.7067 5.6 13.5 5.6C13.2933 5.6 13.0896 5.51553 12.9433 5.36918L12.9432 5.36912C12.797 5.22295 12.7125 5.01923 12.7125 4.8125C12.7125 4.60577 12.797 4.40204 12.9433 4.25575Z" fill="#435F9C" stroke="white" stroke-width="0.3"/>
<path d="M37.4128 32.8972C37.2384 32.7219 36.9966 32.6226 36.75 32.6226C36.5034 32.6226 36.2616 32.722 36.0872 32.8972C35.9128 33.0716 35.8125 33.3135 35.8125 33.5601C35.8125 33.8066 35.9128 34.0485 36.0872 34.2229C36.2616 34.3972 36.5034 34.4976 36.75 34.4976C36.9966 34.4976 37.2384 34.3972 37.4128 34.2229C37.5872 34.0485 37.6875 33.8066 37.6875 33.5601C37.6875 33.3126 37.5872 33.0716 37.4128 32.8972Z" fill="#435F9C"/>
<path d="M37.125 18.705L37.2156 18.6144L37.1402 18.5108C36.7535 17.9788 36.5248 17.3254 36.5248 16.6191C36.5248 14.841 37.9716 13.3941 39.7498 13.3941C41.5279 13.3941 42.9748 14.841 42.9748 16.6191C42.9748 18.3973 41.5279 19.8441 39.7498 19.8441C39.3323 19.8441 38.9335 19.7636 38.5669 19.6183L38.4752 19.5819L38.4055 19.6516L32.0113 26.0459L31.9314 26.1257L31.9861 26.2246C32.2417 26.6863 32.3877 27.2166 32.3877 27.7808C32.3877 29.559 30.9408 31.0058 29.1627 31.0058C27.3845 31.0058 25.9377 29.559 25.9377 27.7808C25.9377 27.1615 26.1134 26.5831 26.4172 26.0912L26.4796 25.9903L26.3957 25.9064L19.9569 19.4677L19.877 19.3878L19.7782 19.4425C19.3165 19.6981 18.7862 19.844 18.222 19.844C17.7159 19.844 17.237 19.7265 16.8104 19.518L16.7142 19.4709L16.6385 19.5466L11.0362 25.1489L10.9563 25.2288L11.011 25.3276C11.2665 25.7894 11.4125 26.3197 11.4125 26.8839C11.4125 28.6621 9.96569 30.1089 8.1875 30.1089C6.40931 30.1089 4.9625 28.6621 4.9625 26.8839C4.9625 25.1057 6.40931 23.6589 8.1875 23.6589C8.75164 23.6589 9.28192 23.8049 9.74368 24.0604L9.84251 24.1151L9.92238 24.0353L15.4586 18.4991L15.5427 18.415L15.48 18.314C15.1741 17.8211 14.997 17.2407 14.997 16.6191C14.997 14.841 16.4438 13.3941 18.222 13.3941C20.0002 13.3941 21.447 14.841 21.447 16.6191C21.447 17.1834 21.3011 17.7137 21.0455 18.1754L20.9908 18.2742L21.0707 18.3541L27.5731 24.8565L27.649 24.9324L27.7453 24.8851C28.1734 24.6747 28.6542 24.556 29.1627 24.556C29.7269 24.556 30.2572 24.702 30.7189 24.9575L30.8178 25.0122L30.8976 24.9324L37.125 18.705ZM6.53759 26.8841C6.53759 27.794 7.27769 28.5341 8.18759 28.5341C9.0975 28.5341 9.83759 27.794 9.83759 26.8841C9.83759 25.9742 9.0975 25.2341 8.18759 25.2341C7.27769 25.2341 6.53759 25.9742 6.53759 26.8841ZM16.5721 16.6191C16.5721 17.529 17.3122 18.2691 18.2221 18.2691C19.132 18.2691 19.8721 17.529 19.8721 16.6191C19.8721 15.7092 19.132 14.9691 18.2221 14.9691C17.3122 14.9691 16.5721 15.7092 16.5721 16.6191ZM27.5128 27.781C27.5128 28.6909 28.2528 29.431 29.1628 29.431C30.0727 29.431 30.8128 28.6909 30.8128 27.781C30.8128 26.8711 30.0727 26.131 29.1628 26.131C28.2528 26.131 27.5128 26.8711 27.5128 27.781ZM38.0998 16.6191C38.0998 17.529 38.8398 18.2691 39.7498 18.2691C40.6597 18.2691 41.3998 17.529 41.3998 16.6191C41.3998 15.7092 40.6597 14.9691 39.7498 14.9691C38.8398 14.9691 38.0998 15.7092 38.0998 16.6191Z" fill="#FF9B00" stroke="white" stroke-width="0.3"/>
<path d="M12.6845 12.6953L12.6845 12.6953C12.8307 12.549 13.0344 12.4645 13.2422 12.4645C13.4486 12.4645 13.6516 12.5488 13.7991 12.6955C13.9453 12.8416 14.0297 13.0453 14.0297 13.252C14.0297 13.4586 13.9453 13.6623 13.7991 13.8086C13.6516 13.9553 13.4487 14.0395 13.2422 14.0395C13.0347 14.0395 12.8318 13.9551 12.6844 13.8086C12.5384 13.6626 12.4547 13.459 12.4547 13.252C12.4547 13.0448 12.5385 12.8412 12.6845 12.6953Z" fill="#435F9C" stroke="white" stroke-width="0.3"/>
<path d="M5.25 12.4645H9.75C10.1849 12.4645 10.5375 12.8171 10.5375 13.252C10.5375 13.6868 10.1849 14.0395 9.75 14.0395H5.25C4.81507 14.0395 4.4625 13.6868 4.4625 13.252C4.4625 12.8171 4.81507 12.4645 5.25 12.4645Z" fill="#435F9C" stroke="white" stroke-width="0.3"/>
<path d="M5.25 16.9645H9.75C10.1849 16.9645 10.5375 17.3171 10.5375 17.752C10.5375 18.1868 10.1849 18.5395 9.75 18.5395H5.25C4.81507 18.5395 4.4625 18.1868 4.4625 17.752C4.4625 17.3171 4.81507 16.9645 5.25 16.9645Z" fill="#435F9C" stroke="white" stroke-width="0.3"/>
</g>
<defs>
<clipPath id="clip0_14986_4376">
<rect width="48" height="48" fill="white" transform="translate(0 0.5)"/>
</clipPath>
</defs>
</svg>
