<svg width="48" height="49" viewBox="0 0 48 49" fill="none" xmlns="http://www.w3.org/2000/svg">
<g clip-path="url(#clip0_14986_4362)">
<path d="M24.0002 2.13125C21.0092 2.12511 18.0476 2.72288 15.2931 3.88874L15.2923 3.88907C9.86339 6.22343 5.57838 10.6107 3.37265 16.0931C1.16692 21.5755 1.2196 27.7079 3.51919 33.1517C5.81879 38.5954 10.1785 42.9084 15.6468 45.1491C21.115 47.3899 27.2476 47.3764 32.7059 45.1117L32.7069 45.1113C37.4588 43.0994 41.3693 39.5069 43.776 34.9423C46.1827 30.3777 46.9377 25.1215 45.9132 20.064C44.8886 15.0065 42.1475 10.4586 38.1541 7.19054C34.1607 3.92248 29.1604 2.13515 24.0002 2.13125ZM24.0002 2.13125C24.0003 2.13125 24.0003 2.13125 24.0003 2.13125L24 2.28125L24.0001 2.13125C24.0002 2.13125 24.0002 2.13125 24.0002 2.13125ZM0.15 24.5C0.15 11.3285 10.8285 0.65 24 0.65C37.1715 0.65 47.85 11.3285 47.85 24.5C47.85 37.6715 37.1715 48.35 24 48.35C10.8285 48.35 0.15 37.6715 0.15 24.5Z" fill="#435F9C" stroke="white" stroke-width="0.3"/>
<path d="M24.241 35.3346C22.1041 35.3934 19.9993 34.8126 18.2041 33.6688C13.2021 30.501 11.7023 23.8685 14.8605 18.8844C15.2602 18.2533 15.7257 17.6651 16.2494 17.1293L16.2377 19.9878C16.2367 20.1017 16.2586 20.2147 16.302 20.3203C16.3455 20.426 16.4097 20.5221 16.491 20.6031C16.5722 20.6842 16.6689 20.7487 16.7755 20.7928C16.8822 20.837 16.9966 20.8599 17.1122 20.8603C17.3445 20.8603 17.5672 20.7696 17.7318 20.6081C17.8963 20.4466 17.9892 20.2274 17.9901 19.9985L18.0111 15.1964C18.012 14.9701 17.9232 14.7525 17.7636 14.5899C17.604 14.4274 17.3862 14.3327 17.1567 14.3263L12.3284 14.2146C12.0955 14.2092 11.8701 14.2952 11.7016 14.4537C11.5331 14.6121 11.4354 14.83 11.4299 15.0595C11.4245 15.2889 11.5117 15.5111 11.6725 15.6772C11.8333 15.8432 12.0544 15.9395 12.2872 15.9449L14.9116 16.0061C13.6327 17.3433 12.6676 18.9413 12.0849 20.6869C11.5022 22.4325 11.316 24.283 11.5396 26.1073C11.7632 27.9317 12.391 29.6853 13.3787 31.244C14.3663 32.8027 15.6896 34.1283 17.2549 35.127C19.2471 36.3958 21.5685 37.0709 23.9405 37.0715C24.0575 37.0715 24.1741 37.0698 24.2905 37.0665C24.4058 37.0633 24.5193 37.0378 24.6246 36.9913C24.7298 36.9449 24.8248 36.8785 24.904 36.7959C24.9832 36.7133 25.0452 36.6161 25.0863 36.5099C25.1274 36.4037 25.1469 36.2906 25.1436 36.177C25.1404 36.0634 25.1144 35.9515 25.0673 35.8478C25.0202 35.744 24.9528 35.6505 24.869 35.5724C24.7852 35.4943 24.6866 35.4333 24.5788 35.3928C24.4711 35.3522 24.3563 35.333 24.241 35.3362V35.3346Z" fill="#FF9B00"/>
<path d="M35.7023 33.0563L33.079 32.9959C34.3577 31.6589 35.3226 30.0611 35.9053 28.3156C36.4881 26.5701 36.6746 24.7196 36.4515 22.8951C36.2285 21.0707 35.6013 19.3169 34.6145 17.758C33.6277 16.1991 32.3053 14.8731 30.741 13.8739C28.6498 12.5409 26.1978 11.8643 23.7086 11.9335C23.5933 11.9367 23.4799 11.9623 23.3746 12.0087C23.2694 12.0552 23.1745 12.1216 23.0953 12.2042C23.0161 12.2868 22.9542 12.384 22.9131 12.4902C22.872 12.5963 22.8526 12.7095 22.8558 12.8231C22.8591 12.9367 22.885 13.0486 22.9321 13.1523C22.9792 13.2561 23.0465 13.3496 23.1303 13.4277C23.2141 13.5058 23.3127 13.5668 23.4204 13.6073C23.5281 13.6479 23.6428 13.6671 23.7581 13.6639C25.894 13.605 27.9979 14.1858 29.7922 15.3297C34.7921 18.4975 36.2912 25.1301 33.1344 30.1143C32.7348 30.7454 32.2695 31.3336 31.746 31.8694L31.7578 29.0109C31.7587 28.8967 31.7366 28.7835 31.6928 28.6777C31.6491 28.572 31.5845 28.4758 31.5028 28.3949C31.4211 28.3139 31.324 28.2497 31.217 28.2059C31.11 28.1621 30.9953 28.1397 30.8795 28.14C30.6474 28.1397 30.4247 28.2302 30.2602 28.3917C30.0957 28.5531 30.0029 28.7722 30.002 29.001L29.981 33.8032C29.9798 34.0296 30.0685 34.2474 30.2281 34.4102C30.3877 34.5729 30.6055 34.6677 30.835 34.6741L35.6612 34.7858H35.6821C35.9149 34.7884 36.1391 34.6998 36.3056 34.5394C36.472 34.379 36.567 34.16 36.5697 33.9306C36.5724 33.7011 36.4825 33.48 36.3198 33.3159C36.1571 33.1518 35.935 33.0581 35.7023 33.0555V33.0563Z" fill="#FF9B00"/>
</g>
<defs>
<clipPath id="clip0_14986_4362">
<rect width="48" height="48" fill="white" transform="translate(0 0.5)"/>
</clipPath>
</defs>
</svg>
