<svg width="49" height="49" viewBox="0 0 49 49" fill="none" xmlns="http://www.w3.org/2000/svg">
<path d="M26.7389 27.8777C31.7823 22.926 28.3173 14.2295 21.1562 14.2295C16.7947 14.2295 13.2268 17.7535 13.1879 22.117C13.124 29.1679 21.6852 32.8356 26.7389 27.8777ZM14.045 22.1254C14.0787 18.3452 17.1235 15.0866 21.2202 15.0866C27.5727 15.1436 30.621 22.8661 26.1383 27.2658C21.6341 31.6856 13.9878 28.4261 14.045 22.1254Z" fill="#435F9C"/>
<path d="M28.5544 36.3586C28.3828 36.197 28.1112 36.2045 27.9488 36.377C27.7864 36.5494 27.7943 36.8206 27.9668 36.983L29.3362 38.2737C29.501 38.4294 29.7602 38.429 29.9255 38.2721L32.4743 35.8488C32.6455 35.6856 32.6526 35.4144 32.4894 35.2428C32.3266 35.0712 32.0554 35.0653 31.8833 35.2277L29.6287 37.3714L28.5544 36.3586Z" fill="#435F9C"/>
<path d="M42.8579 26.2428C44.1368 23.4153 42.678 18.6493 38.4974 17.0591C38.6501 15.3156 38.6682 13.7542 38.6287 12.5159C38.5867 11.1815 37.3333 10.2332 36.0702 10.5464C31.0669 11.7787 25.9564 10.1294 22.5104 6.97632C21.7437 6.27236 20.5274 6.27236 19.7364 6.97548C16.2978 10.1218 11.2512 11.73 6.24644 10.497C4.97759 10.1729 3.71899 11.1404 3.67585 12.4933C3.63525 14.0812 3.68003 16.5606 4.12535 19.3505C4.16218 19.584 4.38148 19.7397 4.61586 19.7062C4.84982 19.6686 5.00886 19.4493 4.97161 19.2149C4.53676 16.4894 4.49323 14.067 4.53257 12.5176C4.55755 11.7366 5.27535 11.1341 6.03801 11.3282C11.3331 12.6343 16.6721 10.9397 20.3106 7.61164C20.7727 7.19897 21.4846 7.19897 21.9316 7.60829C25.5702 10.9394 30.9702 12.6849 36.2757 11.3784C37.0219 11.1936 37.7474 11.7651 37.7724 12.5427C37.8095 13.7083 37.7946 15.1671 37.6606 16.7944C36.3898 16.4713 35.0393 16.4592 33.778 16.8176C33.5503 16.882 33.418 17.1189 33.4825 17.3466C33.5469 17.5751 33.7868 17.7057 34.0115 17.6429C35.1727 17.3144 36.4185 17.3368 37.5811 17.6569C37.1444 21.7604 35.8894 26.7783 32.7304 31.1006C28.1264 28.6561 22.6503 32.834 24.0152 38.0155C23.2498 38.3502 22.4411 38.6626 21.5859 38.9359C21.3352 39.0179 21.0702 39.0171 20.8179 38.935C13.2488 36.5126 8.22356 31.245 5.88148 23.2771C5.81494 23.0503 5.58098 22.9205 5.34954 22.9866C5.1227 23.0536 4.99253 23.2913 5.0595 23.5182C7.45222 31.6594 12.811 37.2726 20.555 39.7512C20.9644 39.8836 21.4104 39.8929 21.8487 39.752C22.7039 39.4785 23.5143 39.1653 24.2857 38.8313C25.2089 41.0155 27.3709 42.5519 29.8844 42.5519C33.2393 42.5519 35.969 39.8223 35.969 36.4674C35.969 34.4499 34.9754 32.6641 33.4555 31.5584C36.6473 27.168 37.9439 22.1101 38.4099 17.9413C41.7916 19.3641 43.0882 23.2956 42.1456 25.7263C41.4876 25.2877 40.7796 24.879 39.9973 24.8734C38.6846 24.8345 37.732 26.123 38.478 27.2548C39.305 28.5068 41.2809 28.4414 42.4139 26.9844C44.798 28.9165 45.2523 31.3841 44.4475 33.0773C43.7746 34.4939 42.2847 35.3218 40.7288 36.0082L41.5822 34.8435C41.722 34.6527 41.681 34.384 41.4902 34.2442C41.2985 34.1035 41.0306 34.1454 40.8908 34.3363L39.7943 35.8329C39.2189 36.6177 39.5104 37.2458 40.3367 37.6928C40.8057 37.9468 41.8142 38.3608 42.0824 38.3608C42.5789 38.3608 42.6756 37.6493 42.1937 37.5187C41.412 37.3062 40.9603 37.0401 40.7411 36.9376C42.5625 36.1565 44.3755 35.226 45.2217 33.4456C46.1994 31.3877 45.6623 28.4585 42.8579 26.2428ZM35.1118 36.4674C35.1118 39.3494 32.7668 41.6948 29.8844 41.6948C27.0066 41.6948 24.6654 39.3494 24.6654 36.4674C24.6654 33.5896 27.0066 31.2484 29.8844 31.2484C32.7668 31.2484 35.1118 33.5896 35.1118 36.4674ZM39.914 27.2573C39.4686 27.174 38.9895 26.7379 39.0857 26.3064C39.2112 25.7392 40.0769 25.7077 39.9906 25.7305C40.5784 25.7345 41.217 26.1313 41.7237 26.4755C41.2596 27.0606 40.5397 27.372 39.914 27.2573Z" fill="#435F9C"/>
<path d="M22.8035 18.7496C22.8035 19.7204 22.0175 21.0306 21.0467 21.0306C20.0725 21.0306 19.2812 19.7204 19.2812 18.7496C19.2812 17.7754 20.0699 16.9868 21.044 16.9868C22.0149 16.9868 22.8035 17.7754 22.8035 18.7496Z" fill="#FF9A00"/>
<path d="M24.393 24.3801C24.393 25.6924 22.891 26.6243 21.0422 26.6243C19.1934 26.6243 17.6914 25.6924 17.6914 24.3801C17.6914 23.0638 19.1934 21.8623 21.0422 21.8623C22.891 21.8623 24.393 23.0638 24.393 24.3801Z" fill="#FF9A00"/>
</svg>
