<svg width="49" height="49" viewBox="0 0 49 49" fill="none" xmlns="http://www.w3.org/2000/svg">
<path d="M6.48203 5.15H7.68203V6.35H6.48203V5.15Z" fill="#435F9C" stroke="white" stroke-width="0.3"/>
<path d="M9.48203 5.15H10.682V6.35H9.48203V5.15Z" fill="#435F9C" stroke="white" stroke-width="0.3"/>
<path d="M12.482 5.15H13.682V6.35H12.482V5.15Z" fill="#435F9C" stroke="white" stroke-width="0.3"/>
<path d="M6.65777 21.1743L6.5517 21.2803L6.65777 21.1743C6.54525 21.0617 6.48203 20.9091 6.48203 20.75V13.25C6.48203 13.0909 6.54525 12.9383 6.65777 12.8257C6.77029 12.7132 6.9229 12.65 7.08203 12.65H19.082C19.2412 12.65 19.3938 12.7132 19.5063 12.8257C19.6188 12.9383 19.682 13.0909 19.682 13.25V20.75C19.682 20.9091 19.6188 21.0617 19.5063 21.1743C19.3938 21.2868 19.2412 21.35 19.082 21.35H7.08203C6.9229 21.35 6.77029 21.2868 6.65777 21.1743Z" fill="#FF9A00" stroke="white" stroke-width="0.3"/>
<path d="M25.982 13.4H37.682V14.6H25.982V13.4Z" fill="#435F9C" stroke="white" stroke-width="0.3"/>
<path d="M22.982 16.4H36.182V17.6H22.982V16.4Z" fill="#435F9C" stroke="white" stroke-width="0.3"/>
<path d="M22.982 19.4H33.182V20.6H22.982V19.4Z" fill="#435F9C" stroke="white" stroke-width="0.3"/>
<path d="M9.48203 24.65H28.682V25.85H9.48203V24.65Z" fill="#435F9C" stroke="white" stroke-width="0.3"/>
<path d="M6.48203 27.65H25.682V28.85H6.48203V27.65Z" fill="#435F9C" stroke="white" stroke-width="0.3"/>
<path d="M6.48203 30.65H22.682V31.85H6.48203V30.65Z" fill="#435F9C" stroke="white" stroke-width="0.3"/>
<path d="M6.48203 33.65H22.682V34.85H6.48203V33.65Z" fill="#435F9C" stroke="white" stroke-width="0.3"/>
<path d="M6.48203 36.65H22.682V37.85H6.48203V36.65Z" fill="#435F9C" stroke="white" stroke-width="0.3"/>
<path d="M6.48203 24.65H7.68203V25.85H6.48203V24.65Z" fill="#435F9C" stroke="white" stroke-width="0.3"/>
<path d="M42.182 6.5V6.65H42.332H43.082C44.0368 6.65 44.9525 7.02928 45.6276 7.70442C46.3027 8.37955 46.682 9.29522 46.682 10.25V43.25C46.682 44.2048 46.3027 45.1205 45.6276 45.7956C44.9525 46.4707 44.0368 46.85 43.082 46.85H10.082C9.12725 46.85 8.21158 46.4707 7.53645 45.7956C6.86132 45.1205 6.48203 44.2048 6.48203 43.25V42.5V42.35H6.33203H5.58203C4.62725 42.35 3.71158 41.9707 3.03645 41.2956C2.36132 40.6205 1.98203 39.7048 1.98203 38.75V5.75C1.98203 4.79522 2.36132 3.87955 3.03645 3.20442C3.71158 2.52928 4.62725 2.15 5.58203 2.15H38.582C39.5368 2.15 40.4525 2.52928 41.1276 3.20442C41.8027 3.87955 42.182 4.79522 42.182 5.75V6.5ZM41.8456 18.0489L41.7395 17.9429L41.6335 18.0489L39.511 20.1714L39.4049 20.2775L39.511 20.3836L42.6985 23.5711L42.8045 23.6771L42.9106 23.5711L45.0331 21.4486L45.1392 21.3425L45.0331 21.2364L41.8456 18.0489ZM28.0396 33.1836L28.0045 33.2746L28.0735 33.3436L29.7385 35.0086L29.8074 35.0775L29.8985 35.0425L31.436 34.45L31.6512 34.367L31.4881 34.2039L28.8781 31.5939L28.715 31.4308L28.6321 31.6461L28.0396 33.1836ZM28.3689 35.6273L28.5832 35.544L28.4206 35.3814L27.7006 34.6614L27.538 34.4988L27.4547 34.7132L26.9972 35.8907L26.8739 36.2082L27.1914 36.0848L28.3689 35.6273ZM30.496 31.5211L30.602 31.6271L30.7081 31.5211L39.7231 22.5061L39.8292 22.4L39.7231 22.2939L38.6656 21.2364L38.5595 21.1304L38.4535 21.2364L29.4385 30.2514L29.3324 30.3575L29.4385 30.4636L30.496 31.5211ZM40.7881 23.3589L40.682 23.2529L40.576 23.3589L31.561 32.3739L31.4549 32.48L31.561 32.5861L32.6185 33.6436L32.7245 33.7496L32.8306 33.6436L41.8456 24.6286L41.9517 24.5225L41.8456 24.4164L40.7881 23.3589ZM3.18203 5.74955V5.75V8V8.15H3.33203H40.832H40.982V8V5.75L40.982 5.74955C40.9801 5.11374 40.7267 4.5045 40.2771 4.05491C39.8275 3.60532 39.2183 3.3519 38.5825 3.35H38.582L5.58203 3.35L5.58158 3.35C4.94577 3.3519 4.33653 3.60532 3.88694 4.05491C3.43735 4.5045 3.18393 5.11374 3.18203 5.74955ZM5.58158 41.15H5.58203H38.582L38.5825 41.15C39.2183 41.1481 39.8275 40.8947 40.2771 40.4451C40.7267 39.9955 40.9801 39.3863 40.982 38.7504V38.75V27.5525V27.1904L40.726 27.4464L33.151 35.0214L33.1505 35.0219C33.0909 35.082 33.0193 35.1291 32.9404 35.1601C32.9402 35.1602 32.94 35.1603 32.9398 35.1603L26.0482 37.8075L26.0482 37.8074L26.0447 37.8089C25.9777 37.8366 25.9058 37.8506 25.8333 37.85L25.8316 37.85C25.6721 37.8505 25.5189 37.788 25.4052 37.6761C25.3228 37.5942 25.2664 37.4897 25.243 37.3759C25.2196 37.2621 25.2302 37.1439 25.2737 37.0361L25.2746 37.0338L27.9217 30.1422C27.9218 30.142 27.9218 30.1419 27.9219 30.1417C27.9529 30.0628 28 29.9912 28.0602 29.9315L28.0606 29.9311L40.9381 17.0536L40.982 17.0096V16.9475V9.5V9.35H40.832H3.33203H3.18203V9.5L3.18203 38.75L3.18203 38.7504C3.18393 39.3863 3.43735 39.9955 3.88694 40.4451C4.33653 40.8947 4.94577 41.1481 5.58158 41.15ZM45.482 43.2504V43.25V23.0525V22.6904L45.226 22.9464L42.226 25.9464L42.182 25.9904V26.0525V38.75C42.182 39.7048 41.8027 40.6205 41.1276 41.2956C40.4525 41.9707 39.5368 42.35 38.582 42.35H7.83203H7.68203V42.5L7.68203 43.25L7.68203 43.2504C7.68393 43.8863 7.93735 44.4955 8.38694 44.9451C8.83653 45.3947 9.44577 45.6481 10.0816 45.65H10.082H43.082L43.0825 45.65C43.7183 45.6481 44.3275 45.3947 44.7771 44.9451C45.2267 44.4955 45.4801 43.8863 45.482 43.2504ZM45.226 19.7311L45.482 19.9871V19.625V14V13.85H45.332H42.332H42.182V14V16.625V16.6871L42.226 16.7311L45.226 19.7311ZM45.332 12.65H45.482V12.5V10.25L45.482 10.2496C45.4801 9.61374 45.2267 9.0045 44.7771 8.55491C44.3275 8.10532 43.7183 7.8519 43.0825 7.85H43.082H42.332H42.182V8V12.5V12.65H42.332H45.332Z" fill="#435F9C" stroke="white" stroke-width="0.3"/>
<path d="M22.982 13.4H24.182V14.6H22.982V13.4Z" fill="#435F9C" stroke="white" stroke-width="0.3"/>
</svg>
